# xmcd
#
# Track frame offsets:
#	150
#	26705
#	57275
#	76270
#	102815
#	123995
#	142320
#	174350
#	206550
#	222105
#	250110
#	273700
#
# Disc length: 3819
#
# Revision: 1
# Processed by: cddbd v1.5.1PL0 Copyright (c) Steve Scherf et al.
# Submitted via: dBpowerAMP V4.0
# Normalized: r0:TRMNUM
#
DISCID=ad0ee90c
DTITLE=Warren Haynes - Acoustic (Atomic Studios, Clinton, NJ) 27 jun'97
DYEAR=1997
DGENRE=Blues
TTITLE0=The Big Muddy
TTITLE1=Panonica's Dream
TTITLE2=End Of The Line
TTITLE3=Before You Came
TTITLE4=Goin' Down Slow
TTITLE5=Loaded Dice
TTITLE6=Indian Sunset
TTITLE7=Gambler's Roll
TTITLE8=Sad and Deep As You
TTITLE9=Soulshine
TTITLE10=I'll Be The One
TTITLE11=Grinnin'
EXTD=
EXTT0=
EXTT1=
EXTT2=
EXTT3=
EXTT4=
EXTT5=
EXTT6=
EXTT7=
EXTT8=
EXTT9=
EXTT10=
EXTT11=
PLAYORDER=
